<?xml version="1.0" standalone="no"?><svg xmlns="http://www.w3.org/2000/svg" viewBox="0 0 1440 320"><path fill="#E2DCDE" fill-opacity="1" d="M0,128L24,144C48,160,96,192,144,218.7C192,245,240,267,288,272C336,277,384,267,432,261.3C480,256,528,256,576,229.3C624,203,672,149,720,117.3C768,85,816,75,864,112C912,149,960,235,1008,245.3C1056,256,1104,192,1152,154.7C1200,117,1248,107,1296,106.7C1344,107,1392,117,1416,122.7L1440,128L1440,0L1416,0C1392,0,1344,0,1296,0C1248,0,1200,0,1152,0C1104,0,1056,0,1008,0C960,0,912,0,864,0C816,0,768,0,720,0C672,0,624,0,576,0C528,0,480,0,432,0C384,0,336,0,288,0C240,0,192,0,144,0C96,0,48,0,24,0L0,0Z"></path></svg>